<?xml version="1.0" encoding="UTF-8"?>
<svg width="468px" height="234px" viewBox="0 0 468 234" version="1.1" xmlns="http://www.w3.org/2000/svg" xmlns:xlink="http://www.w3.org/1999/xlink">
    <!-- Generator: Sketch 42 (36781) - http://www.bohemiancoding.com/sketch -->
    <title>appenginehero</title>
    <desc>Created with Sketch.</desc>
    <defs>
        <linearGradient x1="50%" y1="-1.55913058e-15%" x2="50%" y2="99.8449301%" id="linearGradient-1">
            <stop stop-color="#4387FD" offset="0%"></stop>
            <stop stop-color="#4683EA" offset="100%"></stop>
        </linearGradient>
        <polygon id="path-2" points="92.8962675 63.6144194 92.8962675 126.924565 0.637422492 126.924565 0.637422492 63.6144194 0.637422492 0.304274194 92.8962675 0.304274194 92.8962675 63.6144194"></polygon>
    </defs>
    <g id="Page-1" stroke="none" stroke-width="1" fill="none" fill-rule="evenodd">
        <g id="Product_appengine" transform="translate(-820.000000, -555.000000)">
            <g id="row1" transform="translate(237.000000, 551.000000)">
                <g id="appenginehero" transform="translate(583.000000, 4.000000)">
                    <g>
                        <ellipse id="Oval-13" fill="#36464E" opacity="0.152173913" cx="52" cy="229.5" rx="52" ry="4.5"></ellipse>
                        <ellipse id="Oval-13" fill="#36464E" opacity="0.152173913" cx="428" cy="228.5" rx="27" ry="2.5"></ellipse>
                        <rect id="Rectangle-13" fill="#36464E" opacity="0.180197011" x="81" y="212" width="338" height="7" rx="3.5"></rect>
                        <g id="Page-1" transform="translate(58.604863, 0.000000)">
                            <path d="M336.231436,195.446723 L22.8120844,195.446723 L22.8120844,16.472349 C22.8120844,7.79905027 29.8232826,0.768555548 38.4727759,0.768555548 L320.570744,0.768555548 C329.220237,0.768555548 336.231436,7.79905027 336.231436,16.472349 L336.231436,195.446723 Z" id="Fill-1" fill="#444444"></path>
                            <g id="Group-7" transform="translate(0.000000, 19.937400)">
                                <polygon id="Fill-4" fill="#FAFAFA" points="41.8088203 155.847049 317.2347 155.847049 317.2347 0.493135623 41.8088203 0.493135623"></polygon>
                                <path d="M344.770682,195.838876 L14.2725447,195.838876 C6.82828464,195.838876 0.791842614,189.787292 0.791842614,182.321072 L0.791842614,178.060969 C0.791842614,176.65222 1.93101553,175.509912 3.33589758,175.509912 L355.707329,175.509912 C357.112211,175.509912 358.251384,176.65222 358.251384,178.060969 L358.251384,182.321072 C358.251384,189.787292 352.21641,195.838876 344.770682,195.838876" id="Fill-6" fill="#999999"></path>
                            </g>
                            <g id="Group-20" transform="translate(41.104177, 7.688980)">
                                <polygon id="Fill-9" fill="#87CEAC" points="0.704643038 51 276.130523 51 276.130523 12.7415553 0.704643038 12.7415553"></polygon>
                                <polygon id="Fill-55" fill="#EAEDEF" points="12 134 264 134 264 63 12 63"></polygon>
                                <polygon id="Fill-63" fill="#90CAF9" points="129.29096 86.5200201 153.94496 86.5200201 153.94496 82.3110201 129.29096 82.3110201"></polygon>
                                <polygon id="Fill-65" fill="#8FA3AD" points="159.65796 86.5200201 219.78996 86.5200201 219.78996 82.3110201 159.65796 82.3110201"></polygon>
                                <polygon id="Fill-66" fill="#90CAF9" points="129.29096 96.1410201 153.94496 96.1410201 153.94496 91.9320201 129.29096 91.9320201"></polygon>
                                <polygon id="Fill-67" fill="#8FA3AD" points="159.65796 96.1410201 202.95296 96.1410201 202.95296 91.9320201 159.65796 91.9320201"></polygon>
                                <polygon id="Fill-68" fill="#90CAF9" points="129.29096 105.76202 153.94496 105.76202 153.94496 101.55302 129.29096 101.55302"></polygon>
                                <polygon id="Fill-69" fill="#8FA3AD" points="159.65796 105.76202 231.81596 105.76202 231.81596 101.55302 159.65796 101.55302"></polygon>
                                <polygon id="Fill-73" fill="#8FA3AD" points="129.29096 115.38302 231.81596 115.38302 231.81596 111.17402 129.29096 111.17402"></polygon>
                                <polygon id="Fill-11" fill="#000000" points="0.704643038 168.095469 276.130523 168.095469 276.130523 146.84206 0.704643038 146.84206"></polygon>
                                <path d="M13.4053934,157.469059 C13.4053934,158.84395 12.2941126,159.95829 10.9229947,159.95829 C9.55187678,159.95829 8.44059599,158.84395 8.44059599,157.469059 C8.44059599,156.094167 9.55187678,154.979828 10.9229947,154.979828 C12.2941126,154.979828 13.4053934,156.094167 13.4053934,157.469059" id="Fill-12" fill="#33AC71"></path>
                                <path d="M24.716529,157.469059 C24.716529,158.84395 23.6052482,159.95829 22.2341303,159.95829 C20.8630124,159.95829 19.7517316,158.84395 19.7517316,157.469059 C19.7517316,156.094167 20.8630124,154.979828 22.2341303,154.979828 C23.6052482,154.979828 24.716529,156.094167 24.716529,157.469059" id="Fill-13" fill="#999999"></path>
                                <path d="M36.0276645,157.469059 C36.0276645,158.84395 34.9163837,159.95829 33.5452658,159.95829 C32.1741479,159.95829 31.0628671,158.84395 31.0628671,157.469059 C31.0628671,156.094167 32.1741479,154.979828 33.5452658,154.979828 C34.9163837,154.979828 36.0276645,156.094167 36.0276645,157.469059" id="Fill-14" fill="#26C6DA"></path>
                                <path d="M47.3388001,157.469059 C47.3388001,158.84395 46.2275193,159.95829 44.8564014,159.95829 C43.4852835,159.95829 42.3740027,158.84395 42.3740027,157.469059 C42.3740027,156.094167 43.4852835,154.979828 44.8564014,154.979828 C46.2275193,154.979828 47.3388001,156.094167 47.3388001,157.469059" id="Fill-15" fill="#4285F4"></path>
                                <path d="M58.6497889,157.469059 C58.6497889,158.84395 57.5385081,159.95829 56.1673902,159.95829 C54.7962723,159.95829 53.6849915,158.84395 53.6849915,157.469059 C53.6849915,156.094167 54.7962723,154.979828 56.1673902,154.979828 C57.5385081,154.979828 58.6497889,156.094167 58.6497889,157.469059" id="Fill-16" fill="#F44336"></path>
                                <path d="M69.9609244,157.469059 C69.9609244,158.84395 68.8496436,159.95829 67.4785257,159.95829 C66.1074078,159.95829 64.996127,158.84395 64.996127,157.469059 C64.996127,156.094167 66.1074078,154.979828 67.4785257,154.979828 C68.8496436,154.979828 69.9609244,156.094167 69.9609244,157.469059" id="Fill-17" fill="#FFFFFF"></path>
                                <g id="AppEngine_512px" transform="translate(41.000000, 75.000000)" fill-rule="nonzero">
                                    <g id="Group">
                                        <g id="BASE" fill="url(#linearGradient-1)">
                                            <path d="M10.8119424,42.0402515 L0.599350984,24.3770482 C-0.199783661,22.9949065 -0.199783661,21.2920341 0.599350984,19.9098827 L10.8119424,2.24667942 C11.611077,0.864528078 13.0879452,0.013091847 14.6862145,0.013091847 L35.1113779,0.013091847 C36.7096472,0.013091847 38.1865154,0.864528078 38.98565,2.24667942 L49.1982415,19.9098827 C49.9973761,21.2920244 49.9973761,22.9948968 49.1982415,24.3770482 L38.98565,42.0402515 C38.1865154,43.4224028 36.7096472,44.273839 35.1113779,44.273839 L14.6862145,44.273839 C13.0879355,44.273839 11.611077,43.4224028 10.8119424,42.0402515 Z" id="Shape"></path>
                                        </g>
                                        <g id="shadow" transform="translate(10.406919, 7.672522)" fill="#000000" opacity="0.07">
                                            <polygon id="Shape" points="36.7463924 21.4332862 28.9898338 13.6879242 28.7203335 13.6049735 15.1463657 0.0505803701 12.3599861 4.11927972 14.6945012 6.45042486 8.75348305 8.61135658 6.43213715 14.5081362 4.15384867 12.2331364 0.0496127967 15.8326659 21.2099423 36.9624504 27.5898601 37.0191105"></polygon>
                                        </g>
                                        <g id="art" transform="translate(10.212397, 7.478281)" fill="#FFFFFF">
                                            <g id="Group">
                                                <path d="M14.6859325,5.71372682 C9.73424274,5.71372682 5.72033309,9.72159958 5.72033309,14.6668505 C5.72033309,19.6106738 9.73424274,23.6199354 14.6859325,23.6199354 C19.6374277,23.6199354 23.651279,19.6106738 23.651279,14.6668505 C23.6512693,9.72159958 19.6374277,5.71372682 14.6859325,5.71372682 M14.6859325,21.4593048 C10.9283832,21.4593048 7.88250176,18.418024 7.88250176,14.6668505 C7.88250176,10.9147253 10.9283832,7.87320173 14.6859325,7.87320173 C18.4432386,7.87320173 21.4886727,10.9147253 21.4886727,14.6668505 C21.4886727,18.418024 18.4432386,21.4593048 14.6859325,21.4593048" id="Shape"></path>
                                                <path d="M28.7476541,13.6062361 L25.0097709,12.4332144 C25.1652522,13.1534408 25.2490523,13.9000937 25.2490523,14.6661318 C25.2490523,15.2018972 25.2083097,15.7281351 25.1315027,16.2421649 L28.7476541,16.2421649 C29.0817259,16.1444519 29.3050467,15.9373521 29.3050467,15.6297034 L29.3050467,14.2177846 C29.3050467,13.9106216 29.0817259,13.6976751 28.7476541,13.6062361" id="Shape"></path>
                                                <path d="M14.6833842,4.11782291 C15.434365,4.11782291 16.1663799,4.19729664 16.8731264,4.3464252 L15.5331335,0.627524857 C15.4352793,0.293216581 15.2276466,0.0704512298 14.9197866,0.0704512298 L14.3598652,0.0704512298 C14.052015,0.0704512298 13.8382841,0.293216581 13.7467032,0.627524857 L12.5825289,4.32727304 C13.2614198,4.19054676 13.963741,4.11782291 14.6833842,4.11782291" id="Shape"></path>
                                                <path d="M4.12259873,14.6661318 C4.12259873,13.9000937 4.20640847,13.1536739 4.36165635,12.4332144 L0.624006628,13.6062361 C0.289925085,13.6976751 0.0667988017,13.9106216 0.0667988017,14.2182605 L0.0667988017,15.6301793 C0.0667988017,15.9373424 0.289915358,16.1444519 0.624006628,16.2421649 L4.24036226,16.2421649 C4.16336078,15.7283779 4.12259873,15.2018972 4.12259873,14.6661318" id="Shape"></path>
                                                <path d="M17.8872855,11.744591 L17.0391119,12.5912586 L17.0391119,12.5893939 C16.4302293,11.9818662 15.6171961,11.6464119 14.7559214,11.6464119 C13.8925557,11.6464119 13.0818664,11.9827791 12.4720696,12.5912683 C11.2130659,13.8482119 11.2130659,15.8948036 12.4720696,17.1519997 L11.623896,17.9982303 C12.4263862,18.7988336 13.5339255,19.2951001 14.7550266,19.2951001 C17.1983377,19.2951001 19.1860787,17.3106946 19.1860787,14.8704831 C19.1860689,13.6506688 18.6892893,12.5449516 17.8872855,11.744591 M16.1368904,16.1159179 C15.7370507,16.5161516 15.2110053,16.716453 14.6863993,16.716453 C14.1601691,16.716453 13.6355145,16.5161516 13.2347606,16.1159179 C12.4327081,15.3150718 12.4327081,14.0174347 13.2347606,13.2163458 C13.6355242,12.8156847 14.1601691,12.6165294 14.6863993,12.6165294 C15.211015,12.6165294 15.7370507,12.8156847 16.1368904,13.2163458 C16.9389429,14.0169588 16.9389429,15.3150718 16.1368904,16.1159179" id="Shape"></path>
                                            </g>
                                        </g>
                                    </g>
                                </g>
                                <path d="M141.085391,2.91063909 C141.085391,4.38857391 139.890434,5.58534782 138.418023,5.58534782 C136.944145,5.58534782 135.749188,4.38857391 135.749188,2.91063909 C135.749188,1.43270427 136.944145,0.235930354 138.418023,0.235930354 C139.890434,0.235930354 141.085391,1.43270427 141.085391,2.91063909" id="Fill-19" fill="#000000"></path>
                            </g>
                        </g>
                        <g id="Page-1" transform="translate(0.000000, 33.774194)">
                            <g id="Group-8" transform="translate(0.000000, 0.900403)">
                                <path d="M89.8604839,193.983871 L14.075414,193.983871 C6.3705386,193.983871 0.124046201,187.728242 0.124046201,180.012097 L0.124046201,13.9777419 C0.124046201,6.26159677 6.3705386,0.00596774194 14.075414,0.00596774194 L89.8604839,0.00596774194 C97.5653593,0.00596774194 103.811852,6.26159677 103.811852,13.9777419 L103.811852,180.012097 C103.811852,187.728242 97.5653593,193.983871 89.8604839,193.983871 Z" id="Fill-1" fill="#444444"></path>
                                <polygon id="Fill-4" fill="#FAFAFA" points="5.8380304 179.32779 98.0968754 179.32779 98.0968754 14.6608065 5.8380304 14.6608065"></polygon>
                                <polygon id="Fill-6" fill="#2A56C6" points="5.8380304 24.4733387 98.0968754 24.4733387 98.0968754 14.6608065 5.8380304 14.6608065"></polygon>
                                <polygon id="Fill-7" fill="#3B78E7" points="5.8380304 52.7087419 98.0968754 52.7087419 98.0968754 24.4745806 5.8380304 24.4745806"></polygon>
                            </g>
                            <g id="Group-26" transform="translate(5.200608, 53.303629)">
                                <mask id="mask-3" fill="white">
                                    <use xlink:href="#path-2"></use>
                                </mask>
                                <g id="Clip-10"></g>
                                <polygon id="Fill-9" fill="#FAFAFA" mask="url(#mask-3)" points="0.637422492 34.3457258 92.8962675 34.3457258 92.8962675 0.304274194 0.637422492 0.304274194"></polygon>
                                <path d="M24.1811307,17.325621 C24.1811307,21.8040403 20.5562553,25.4342177 16.0843769,25.4342177 C11.6124985,25.4342177 7.98638298,21.8040403 7.98638298,17.325621 C7.98638298,12.8472016 11.6124985,9.21702419 16.0843769,9.21702419 C20.5562553,9.21702419 24.1811307,12.8472016 24.1811307,17.325621" id="Fill-11" fill="#C2C2C2" mask="url(#mask-3)"></path>
                                <polygon id="Fill-12" fill="#C2C2C2" mask="url(#mask-3)" points="31.5300912 15.0820645 70.0470274 15.0820645 70.0470274 12.0914839 31.5300912 12.0914839"></polygon>
                                <polygon id="Fill-13" fill="#C2C2C2" mask="url(#mask-3)" points="31.5300912 22.5597581 77.7977872 22.5597581 77.7977872 19.5691774 31.5300912 19.5691774"></polygon>
                                <polygon id="Fill-14" fill="#FAFAFA" mask="url(#mask-3)" points="0.637422492 67.6109677 92.8962675 67.6109677 92.8962675 33.5695161 0.637422492 33.5695161"></polygon>
                                <path d="M24.1811307,50.5907387 C24.1811307,55.0691581 20.5562553,58.6993355 16.0843769,58.6993355 C11.6124985,58.6993355 7.98638298,55.0691581 7.98638298,50.5907387 C7.98638298,46.1123194 11.6124985,42.4821419 16.0843769,42.4821419 C20.5562553,42.4821419 24.1811307,46.1123194 24.1811307,50.5907387" id="Fill-15" fill="#C2C2C2" mask="url(#mask-3)"></path>
                                <polygon id="Fill-16" fill="#C2C2C2" mask="url(#mask-3)" points="31.5300912 48.3473065 77.7977872 48.3473065 77.7977872 45.3567258 31.5300912 45.3567258"></polygon>
                                <polygon id="Fill-17" fill="#C2C2C2" mask="url(#mask-3)" points="31.5300912 55.825 70.0470274 55.825 70.0470274 52.8344194 31.5300912 52.8344194"></polygon>
                                <polygon id="Fill-18" fill="#FAFAFA" mask="url(#mask-3)" points="0.637422492 100.87621 92.8962675 100.87621 92.8962675 66.8347581 0.637422492 66.8347581"></polygon>
                                <path d="M24.1811307,83.8558565 C24.1811307,88.3342758 20.5562553,91.9644532 16.0843769,91.9644532 C11.6124985,91.9644532 7.98638298,88.3342758 7.98638298,83.8558565 C7.98638298,79.3774371 11.6124985,75.7472597 16.0843769,75.7472597 C20.5562553,75.7472597 24.1811307,79.3774371 24.1811307,83.8558565" id="Fill-19" fill="#C2C2C2" mask="url(#mask-3)"></path>
                                <polygon id="Fill-20" fill="#C2C2C2" mask="url(#mask-3)" points="31.5300912 81.6125484 77.7977872 81.6125484 77.7977872 78.6219677 31.5300912 78.6219677"></polygon>
                                <polygon id="Fill-21" fill="#C2C2C2" mask="url(#mask-3)" points="31.5300912 89.0902419 70.0470274 89.0902419 70.0470274 86.0996613 31.5300912 86.0996613"></polygon>
                                <polygon id="Fill-22" fill="#FAFAFA" mask="url(#mask-3)" points="0.637422492 134.141452 92.8962675 134.141452 92.8962675 100.1 0.637422492 100.1"></polygon>
                            </g>
                            <g id="Group-31" transform="translate(49.604863, 5.868145)">
                                <path d="M38.7382079,153.723055 C38.7382079,159.726571 33.8794116,164.592474 27.885904,164.592474 C21.8911562,164.592474 17.0323599,159.726571 17.0323599,153.723055 C17.0323599,147.720781 21.8911562,142.853635 27.885904,142.853635 C33.8794116,142.853635 38.7382079,147.720781 38.7382079,153.723055" id="Fill-27" fill="#DB4437"></path>
                                <path d="M4.61700669,2.36601774 C4.61700669,3.61292097 3.60754772,4.62261452 2.36370578,4.62261452 C1.11862371,4.62261452 0.109164742,3.61292097 0.109164742,2.36601774 C0.109164742,1.11911452 1.11862371,0.109420968 2.36370578,0.109420968 C3.60754772,0.109420968 4.61700669,1.11911452 4.61700669,2.36601774" id="Fill-29" fill="#000000"></path>
                            </g>
                        </g>
                        <g id="Page-1" transform="translate(387.000000, 82.000000)">
                            <g id="Group-6" transform="translate(21.507576, 0.095707)" fill="#262626">
                                <path d="M0.3636,84.5010433 L0.3636,140.642843 C0.3636,143.791877 2.92256212,146.34603 6.07752424,146.34603 L32.116403,146.34603 C35.2713652,146.34603 37.8303273,143.791877 37.8303273,140.642843 L37.8303273,84.5010433 L0.3636,84.5010433 Z" id="Fill-1"></path>
                                <path d="M37.8303273,5.825572 C37.8303273,2.675412 35.2713652,0.121258667 32.116403,0.121258667 L6.07752424,0.121258667 C2.92256212,0.121258667 0.3636,2.675412 0.3636,5.825572 L0.3636,84.5007053 L37.8303273,84.5007053 L37.8303273,5.825572 Z" id="Fill-4"></path>
                            </g>
                            <path d="M80.4475909,73.3303087 C80.4475909,95.2935487 62.6093561,113.098262 40.6047652,113.098262 C18.6001742,113.098262 0.761939394,95.2935487 0.761939394,73.3303087 C0.761939394,51.3670687 18.6001742,33.5623553 40.6047652,33.5623553 C62.6093561,33.5623553 80.4475909,51.3670687 80.4475909,73.3303087" id="Fill-8" fill="#848484"></path>
                            <g id="Group-19" transform="translate(7.507576, 39.655707)">
                                <path d="M65.9686212,33.674602 C65.9686212,51.794782 51.2514848,66.484262 33.0971894,66.484262 C14.9428939,66.484262 0.225757576,51.794782 0.225757576,33.674602 C0.225757576,15.554422 14.9428939,0.864942 33.0971894,0.864942 C51.2514848,0.864942 65.9686212,15.554422 65.9686212,33.674602" id="Fill-13" fill="#4DD0E1"></path>
                                <path d="M33.0969636,66.4844873 C47.3964485,66.4844873 59.5580091,57.3675007 64.0799333,44.6418007 L2.11399394,44.6418007 C6.63591818,57.3675007 18.7974788,66.4844873 33.0969636,66.4844873" id="Fill-15" fill="#FFFFFF"></path>
                                <path d="M54.0771795,44.9412687 C54.0771795,49.3521687 50.4944068,52.9282087 46.0752023,52.9282087 C41.6559977,52.9282087 38.0743538,49.3521687 38.0743538,44.9412687 C38.0743538,40.5303687 41.6559977,36.9543287 46.0752023,36.9543287 C50.4944068,36.9543287 54.0771795,40.5303687 54.0771795,44.9412687" id="Fill-17" fill="#66BB6A"></path>
                            </g>
                        </g>
                    </g>
                </g>
            </g>
        </g>
    </g>
</svg>